SplineFontDB: 3.2
FontName: FinalFantasyTacticsAdvance
FullName: Final Fantasy Script Collection - Final Fantasy Tactics Advance
FamilyName: Final Fantasy Tactics Advance
Weight: Book
Version: 1.0
ItalicAngle: 0
UnderlinePosition: -100
UnderlineWidth: 50
Ascent: 800
Descent: 200
InvalidEm: 0
sfntRevision: 0x00010000
LayerCount: 2
Layer: 0 1 "Back" 1
Layer: 1 1 "Fore" 0
XUID: [1021 610 1559653332 18995]
StyleMap: 0x0040
FSType: 0
OS2Version: 2
OS2_WeightWidthSlopeOnly: 0
OS2_UseTypoMetrics: 0
CreationTime: 1106310969
ModificationTime: 1682808705
PfmFamily: 81
TTFWeight: 400
TTFWidth: 5
LineGap: 30
VLineGap: 0
Panose: 0 0 0 0 0 0 0 0 0 0
OS2TypoAscent: 750
OS2TypoAOffset: 0
OS2TypoDescent: -170
OS2TypoDOffset: 0
OS2TypoLinegap: 30
OS2WinAscent: 363
OS2WinAOffset: 0
OS2WinDescent: 83
OS2WinDOffset: 0
HheadAscent: 750
HheadAOffset: 0
HheadDescent: -170
HheadDOffset: 0
OS2SubXSize: 700
OS2SubYSize: 650
OS2SubXOff: 0
OS2SubYOff: 140
OS2SupXSize: 700
OS2SupYSize: 650
OS2SupXOff: 0
OS2SupYOff: 477
OS2StrikeYSize: 50
OS2StrikeYPos: 250
OS2CapHeight: 320
OS2XHeight: 320
OS2Vendor: 'pyrs'
OS2CodePages: 00000001.00000000
OS2UnicodeRanges: 80000003.00000000.00000000.00000000
DEI: 91125
TtTable: prep
PUSHW_1
 0
CALL
EndTTInstrs
TtTable: fpgm
PUSHW_1
 0
FDEF
MPPEM
PUSHW_1
 9
LT
IF
PUSHB_2
 1
 1
INSTCTRL
EIF
PUSHW_1
 511
SCANCTRL
PUSHW_1
 68
SCVTCI
PUSHW_2
 9
 3
SDS
SDB
ENDF
PUSHW_1
 1
FDEF
DUP
DUP
RCVT
ROUND[Black]
WCVTP
PUSHB_1
 1
ADD
ENDF
PUSHW_1
 2
FDEF
PUSHW_1
 1
LOOPCALL
POP
ENDF
PUSHW_1
 3
FDEF
DUP
GC[cur]
PUSHB_1
 3
CINDEX
GC[cur]
GT
IF
SWAP
EIF
DUP
ROLL
DUP
ROLL
MD[grid]
ABS
ROLL
DUP
GC[cur]
DUP
ROUND[Grey]
SUB
ABS
PUSHB_1
 4
CINDEX
GC[cur]
DUP
ROUND[Grey]
SUB
ABS
GT
IF
SWAP
NEG
ROLL
EIF
MDAP[rnd]
DUP
PUSHB_1
 0
GTEQ
IF
ROUND[Black]
DUP
PUSHB_1
 0
EQ
IF
POP
PUSHB_1
 64
EIF
ELSE
ROUND[Black]
DUP
PUSHB_1
 0
EQ
IF
POP
PUSHB_1
 64
NEG
EIF
EIF
MSIRP[no-rp0]
ENDF
PUSHW_1
 4
FDEF
DUP
GC[cur]
PUSHB_1
 4
CINDEX
GC[cur]
GT
IF
SWAP
ROLL
EIF
DUP
GC[cur]
DUP
ROUND[White]
SUB
ABS

StartChar: E
Encoding: 69 69 4
Width: 280
GlyphClass: 1
Flags: W
LayerCount: 2
Fore
SplineSet
-3 323 m 1,0,-1
 203 323 l 1,1,-1
 203 277 l 1,2,-1
 43 277 l 1,3,-1
 43 203 l 1,4,-1
 163 203 l 1,5,-1
 163 157 l 1,6,-1
 43 157 l 1,7,-1
 43 43 l 1,8,-1
 203 43 l 1,9,-1
 203 -3 l 1,10,-1
 -3 -3 l 1,11,-1
 -3 323 l 1,0,-1
EndSplineSet
Validated: 1
EndChar

StartChar: F
Encoding: 70 70 5
Width: 280
GlyphClass: 1
Flags: W
LayerCount: 2
Fore
SplineSet
-3 323 m 1,0,-1
 203 323 l 1,1,-1
 203 277 l 1,2,-1
 43 277 l 1,3,-1
 43 203 l 1,4,-1
 163 203 l 1,5,-1
 163 157 l 1,6,-1
 43 157 l 1,7,-1
 43 -3 l 1,8,-1
 -3 -3 l 1,9,-1
 -3 323 l 1,0,-1
EndSplineSet
Validated: 1
EndChar

StartChar: G
Encoding: 71 71 6
Width: 320
GlyphClass: 1
Flags: W
LayerCount: 2
Fore
SplineSet
-3 243 m 1,0,-1
 37 243 l 1,1,-1
 37 283 l 1,2,-1
 77 283 l 1,3,-1
 77 323 l 1,4,-1
 203 323 l 1,5,-1
 203 283 l 1,6,-1
 243 283 l 1,7,-1
 243 237 l 1,8,-1
 197 237 l 1,9,-1
 197 277 l 1,10,-1
 83 277 l 1,11,-1
 83 237 l 1,12,-1
 43 237 l 1,13,-1
 43 83 l 1,14,-1
 83 83 l 1,15,-1
 83 43 l 1,16,-1
 197 43 l 1,17,-1
 197 117 l 1,18,-1
 157 117 l 1,19,-1
 157 163 l 1,20,-1
 243 163 l 1,21,-1
 243 -3 l 1,22,-1
 77 -3 l 1,23,-1
 77 37 l 1,24,-1
 37 37 l 1,25,-1
 37 77 l 1,26,-1
 -3 77 l 1,27,-1
 -3 243 l 1,0,-1
EndSplineSet
Validated: 1
EndChar

StartChar: H
Encoding: 72 72 7
Width: 320
GlyphClass: 1
Flags: W
LayerCount: 2
Fore
SplineSet
-3 323 m 1,0,-1
 43 323 l 1,1,-1
 43 203 l 1,2,-1
 197 203 l 1,3,-1
 197 323 l 1,4,-1
 243 323 l 1,5,-1
 243 -3 l 1,6,-1
 197 -3 l 1,7,-1
 197 157 l 1,8,-1
 43 157 l 1,9,-1
 43 -3 l 1,10,-1
 -3 -3 l 1,11,-1
 -3 323 l 1,0,-1
EndSplineSet
Validated: 1
EndChar

StartChar: I
Encoding: 73 73 8
Width: 200
GlyphClass: 1
Flags: W
LayerCount: 2
Fore
SplineSet
-3 323 m 1,0,-1
 123 323 l 1,1,-1
 123 277 l 1,2,-1
 83 277 l 1,3,-1
 83 43 l 1,4,-1
 123 43 l 1,5,-1
 123 -3 l 1,6,-1
 -3 -3 l 1,7,-1
 -3 43 l 1,8,-1
 37 43 l 1,9,-1
 37 277 l 1,10,-1
 -3 277 l 1,11,-1
 -3 323 l 1,0,-1
EndSplineSet
Validated: 1
EndChar

StartChar: J
Encoding: 74 74 9
Width: 240
GlyphClass: 1
Flags: W
LayerCount: 2
Fore
SplineSet
-3 83 m 1,0,-1
 43 83 l 1,1,-1
 43 43 l 1,2,-1
 117 43 l 1,3,-1
 117 323 l 1,4,-1
 163 323 l 1,5,-1
 163 37 l 1,6,-1
 123 37 l 1,7,-1
 123 -3 l 1,8,-1
 37 -3 l 1,9,-1
 37 37 l 1,10,-1
 -3 37 l 1,11,-1
 -3 83 l 1,0,-1
EndSplineSet
Validated: 1
EndChar

StartChar: K
Encoding: 75 75 10
Width: 280
GlyphClass: 1
Flags: W
LayerCount: 2
Fore
SplineSet
-3 323 m 1,0,-1
 43 323 l 1,1,-1
 43 203 l 1,2,-1
 77 203 l 1,3,-1
 77 243 l 1,4,-1
 117 243 l 1,5,-1
 117 283 l 1,6,-1
 157 283 l 1,7,-1
 157 323 l 1,8,-1
 203 323 l 1,9,-1
 203 277 l 1,10,-1
 163 277 l 1,11,-1
 163 237 l 1,12,-1
 123 237 l 1,13,-1
 123 123 l 1,14,-1
 163 123 l 1,15,-1
 163 43 l 1,16,-1
 203 43 l 1,17,-1
 203 -3 l 1,18,-1
 157 -3 l 1,19,-1
 157 37 l 1,20,-1
 117 37 l 1,21,-1
 117 117 l 1,22,-1
 77 117 l 1,23,-1
 77 157 l 1,24,-1
 43 157 l 1,25,-1
 43 -3 l 1,26,-1
 -3 -3 l 1,27,-1
 -3 323 l 1,0,-1
EndSplineSet
Validated: 1
EndChar

StartChar: L
Encoding: 76 76 11
Width: 240
GlyphClass: 1
Flags: W
LayerCount: 2
Fore
SplineSet
-3 323 m 1,0,-1
 43 323 l 1,1,-1
 43 43 l 1,2,-1
 163 43 l 1,3,-1
 163 -3 l 1,4,-1
 -3 -3 l 1,5,-1
 -3 323 l 1,0,-1
EndSplineSet
Validated: 1
EndChar

StartChar: M
Encoding: 77 77 12
Width: 360
GlyphClass: 1
Flags: W
LayerCount: 2
Fore
SplineSet
-3 163 m 1,0,-1
 37 163 l 1,1,-1
 37 323 l 1,2,-1
 83 323 l 1,3,-1
 83 203 l 1,4,-1
 123 203 l 1,5,-1
 123 83 l 1,6,-1
 157 83 l 1,7,-1
 157 203 l 1,8,-1
 197 203 l 1,9,-1
 197 323 l 1,10,-1
 243 323 l 1,11,-1
 243 163 l 1,12,-1
 283 163 l 1,13,-1
 283 -3 l 1,14,-1
 237 -3 l 1,15,-1
 237 157 l 1,16,-1
 203 157 l 1,17,-1
 203 77 l 1,18,-1
 163 77 l 1,19,-1
 163 -3 l 1,20,-1
 117 -3 l 1,21,-1
 117 77 l 1,22,-1
 77 77 l 1,23,-1
 77 157 l 1,24,-1
 43 157 l 1,25,-1
 43 -3 l 1,26,-1
 -3 -3 l 1,27,-1
 -3 163 l 1,0,-1
EndSplineSet
Validated: 1
EndChar

StartChar: N
Encoding: 78 78 13
Width: 320
GlyphClass: 1
Flags: W
LayerCount: 2
Fore
SplineSet
77 237 m 1,0,-1
 43 237 l 1,1,-1
 43 -3 l 1,2,-1
 -3 -3 l 1,3,-1
 -3 323 l 1,4,-1
 43 323 l 1,5,-1
 43 283 l 1,6,-1
 83 283 l 1,7,-1
 83 243 l 1,8,-1
 123 243 l 1,9,-1
 123 163 l 1,10,-1
 163 163 l 1,11,-1
 163 83 l 1,12,-1
 197 83 l 1,13,-1
 197 323 l 1,14,-1
 243 323 l 1,15,-1
 243 -3 l 1,16,-1
 197 -3 l 1,17,-1
 197 37 l 1,18,-1
 157 37 l 1,19,-1
 157 77 l 1,20,-1
 117 77 l 1,21,-1
 117 157 l 1,22,-1
 77 157 l 1,23,-1
 77 237 l 1,0,-1
EndSplineSet
Validated: 1
EndChar

StartChar: O
Encoding: 79 79 14
Width: 360
GlyphClass: 1
Flags: W
LayerCount: 2
Fore
SplineSet
-3 243 m 1,0,-1
 37 243 l 1,1,-1
 37 283 l 1,2,-1
 77 283 l 1,3,-1
 77 323 l 1,4,-1
 203 323 l 1,5,-1
 203 283 l 1,6,-1
 243 283 l 1,7,-1
 243 243 l 1,8,-1
 283 243 l 1,9,-1
 283 77 l 1,10,-1
 243 77 l 1,11,-1
 243 37 l 1,12,-1
 203 37 l 1,13,-1
 203 -3 l 1,14,-1
 77 -3 l 1,15,-1
 77 37 l 1,16,-1
 37 37 l 1,17,-1
 37 77 l 1,18,-1
 -3 77 l 1,19,-1
 -3 243 l 1,0,-1
83 237 m 1,20,-1
 43 237 l 1,21,-1
 43 83 l 1,22,-1
 83 83 l 1,23,-1
 83 43 l 1,24,-1
 197 43 l 1,25,-1
 197 83 l 1,26,-1
 237 83 l 1,27,-1
 237 237 l 1,28,-1
 197 237 l 1,29,-1
 197 277 l 1,30,-1
 83 277 l 1,31,-1
 83 237 l 1,20,-1
EndSplineSet
Validated: 1
EndChar

StartChar: P
Encoding: 80 80 15
Width: 280
GlyphClass: 1
Flags: W
LayerCount: 2
Fore
SplineSet
43 -3 m 1,0,-1
 -3 -3 l 1,1,-1
 -3 323 l 1,2,-1
 163 323 l 1,3,-1
 163 283 l 1,4,-1
 203 283 l 1,5,-1
 203 157 l 1,6,-1
 163 157 l 1,7,-1
 163 117 l 1,8,-1
 43 117 l 1,9,-1
 43 -3 l 1,0,-1
157 277 m 1,10,-1
 43 277 l 1,11,-1
 43 163 l 1,12,-1
 157 163 l 1,13,-1
 157 277 l 1,10,-1
EndSplineSet
Validated: 1
EndChar

StartChar: Q
Encoding: 81 81 16
Width: 360
GlyphClass: 1
Flags: W
LayerCount: 2
Fore
SplineSet
-3 243 m 1,0,-1
 37 243 l 1,1,-1
 37 283 l 1,2,-1
 77 283 l 1,3,-1
 77 323 l 1,4,-1
 203 323 l 1,5,-1
 203 283 l 1,6,-1
 243 283 l 1,7,-1
 243 243 l 1,8,-1
 283 243 l 1,9,-1
 283 77 l 1,10,-1
 243 77 l 1,11,-1
 243 37 l 1,12,-1
 203 37 l 1,13,-1
 203 3 l 1,14,-1
 283 3 l 1,15,-1
 283 -43 l 1,16,-1
 197 -43 l 1,17,-1
 197 -3 l 1,18,-1
 77 -3 l 1,19,-1
 77 37 l 1,20,-1
 37 37 l 1,21,-1
 37 77 l 1,22,-1
 -3 77 l 1,23,-1
 -3 243 l 1,0,-1
83 237 m 1,24,-1
 43 237 l 1,25,-1
 43 83 l 1,26,-1
 83 83 l 1,27,-1
 83 43 l 1,28,-1
 197 43 l 1,29,-1
 197 83 l 1,30,-1
 237 83 l 1,31,-1
 237 237 l 1,32,-1
 197 237 l 1,33,-1
 197 277 l 1,34,-1
 83 277 l 1,35,-1
 83 237 l 1,24,-1
EndSplineSet
Validated: 1
EndChar

StartChar: R
Encoding: 82 82 17
Width: 320
GlyphClass: 1
Flags: W
LayerCount: 2
Fore
SplineSet
-3 323 m 1,0,-1
 163 323 l 1,1,-1
 163 283 l 1,2,-1
 203 283 l 1,3,-1
 203 157 l 1,4,-1
 163 157 l 1,5,-1
 163 83 l 1,6,-1
 203 83 l 1,7,-1
 203 43 l 1,8,-1
 243 43 l 1,9,-1
 243 -3 l 1,10,-1
 197 -3 l 1,11,-1
 197 37 l 1,12,-1
 157 37 l 1,13,-1
 157 77 l 1,14,-1
 117 77 l 1,15,-1
 117 117 l 1,16,-1
 43 117 l 1,17,-1
 43 -3 l 1,18,-1
 -3 -3 l 1,19,-1
 -3 323 l 1,0,-1
157 277 m 1,20,-1
 43 277 l 1,21,-1
 43 163 l 1,22,-1
 157 163 l 1,23,-1
 157 277 l 1,20,-1
EndSplineSet
Validated: 1
EndChar

StartChar: S
Encoding: 83 83 18
Width: 240
GlyphClass: 1
Flags: W
LayerCount: 2
Fore
SplineSet
43 203 m 1,0,-1
 83 203 l 1,1,-1
 83 163 l 1,2,-1
 123 163 l 1,3,-1
 123 123 l 1,4,-1
 163 123 l 1,5,-1
 163 37 l 1,6,-1
 123 37 l 1,7,-1
 123 -3 l 1,8,-1
 -3 -3 l 1,9,-1
 -3 43 l 1,10,-1
 117 43 l 1,11,-1
 117 117 l 1,12,-1
 77 117 l 1,13,-1
 77 157 l 1,14,-1
 37 157 l 1,15,-1
 37 197 l 1,16,-1
 -3 197 l 1,17,-1
 -3 283 l 1,18,-1
 37 283 l 1,19,-1
 37 323 l 1,20,-1
 163 323 l 1,21,-1
 163 277 l 1,22,-1
 43 277 l 1,23,-1
 43 203 l 1,0,-1
EndSplineSet
Validated: 1
EndChar

StartChar: T
Encoding: 84 84 19
Width: 280
GlyphClass: 1
Flags: W
LayerCount: 2
Fore
SplineSet
-3 323 m 1,0,-1
 203 323 l 1,1,-1
 203 277 l 1,2,-1
 123 277 l 1,3,-1
 123 -3 l 1,4,-1
 77 -3 l 1,5,-1
 77 277 l 1,6,-1
 -3 277 l 1,7,-1
 -3 323 l 1,0,-1
EndSplineSet
Validated: 1
EndChar

StartChar: U
Encoding: 85 85 20
Width: 320
GlyphClass: 1
Flags: W
LayerCount: 2
Fore
SplineSet
-3 323 m 1,0,-1
 43 323 l 1,1,-1
 43 43 l 1,2,-1
 197 43 l 1,3,-1
 197 323 l 1,4,-1
 243 323 l 1,5,-1
 243 37 l 1,6,-1
 203 37 l 1,7,-1
 203 -3 l 1,8,-1
 37 -3 l 1,9,-1
 37 37 l 1,10,-1
 -3 37 l 1,11,-1
 -3 323 l 1,0,-1
EndSplineSet
Validated: 1
EndChar

StartChar: V
Encoding: 86 86 21
Width: 360
GlyphClass: 1
Flags: W
LayerCount: 2
Fore
SplineSet
-3 323 m 1,0,-1
 43 323 l 1,1,-1
 43 283 l 1,2,-1
 83 283 l 1,3,-1
 83 163 l 1,4,-1
 123 163 l 1,5,-1
 123 43 l 1,6,-1
 157 43 l 1,7,-1
 157 163 l 1,8,-1
 197 163 l 1,9,-1
 197 283 l 1,10,-1
 237 283 l 1,11,-1
 237 323 l 1,12,-1
 283 323 l 1,13,-1
 283 277 l 1,14,-1
 243 277 l 1,15,-1
 243 157 l 1,16,-1
 203 157 l 1,17,-1
 203 37 l 1,18,-1
 163 37 l 1,19,-1
 163 -3 l 1,20,-1
 117 -3 l 1,21,-1
 117 37 l 1,22,-1
 77 37 l 1,23,-1
 77 157 l 1,24,-1
 37 157 l 1,25,-1
 37 277 l 1,26,-1
 -3 277 l 1,27,-1
 -3 323 l 1,0,-1
EndSplineSet
Validated: 1
EndChar

StartChar: W
Encoding: 87 87 22
Width: 360
GlyphClass: 1
Flags: W
LayerCount: 2
Fore
SplineSet
-3 323 m 1,0,-1
 43 323 l 1,1,-1
 43 83 l 1,2,-1
 77 83 l 1,3,-1
 77 203 l 1,4,-1
 117 203 l 1,5,-1
 117 283 l 1,6,-1
 163 283 l 1,7,-1
 163 203 l 1,8,-1
 203 203 l 1,9,-1
 203 83 l 1,10,-1
 237 83 l 1,11,-1
 237 323 l 1,12,-1
 283 323 l 1,13,-1
 283 77 l 1,14,-1
 243 77 l 1,15,-1
 243 -3 l 1,16,-1
 197 -3 l 1,17,-1
 197 77 l 1,18,-1
 157 77 l 1,19,-1
 157 197 l 1,20,-1
 123 197 l 1,21,-1
 123 77 l 1,22,-1
 83 77 l 1,23,-1
 83 -3 l 1,24,-1
 37 -3 l 1,25,-1
 37 77 l 1,26,-1
 -3 77 l 1,27,-1
 -3 323 l 1,0,-1
EndSplineSet
Validated: 1
EndChar

StartChar: X
Encoding: 88 88 23
Width: 320
GlyphClass: 1
Flags: W
LayerCount: 2
Fore
SplineSet
157 117 m 1,0,-1
 83 117 l 1,1,-1
 83 37 l 1,2,-1
 43 37 l 1,3,-1
 43 -3 l 1,4,-1
 -3 -3 l 1,5,-1
 -3 43 l 1,6,-1
 37 43 l 1,7,-1
 37 123 l 1,8,-1
 77 123 l 1,9,-1
 77 197 l 1,10,-1
 37 197 l 1,11,-1
 37 277 l 1,12,-1
 -3 277 l 1,13,-1
 -3 323 l 1,14,-1
 43 323 l 1,15,-1
 43 283 l 1,16,-1
 83 283 l 1,17,-1
 83 203 l 1,18,-1
 157 203 l 1,19,-1
 157 283 l 1,20,-1
 197 283 l 1,21,-1
 197 323 l 1,22,-1
 243 323 l 1,23,-1
 243 277 l 1,24,-1
 203 277 l 1,25,-1
 203 197 l 1,26,-1
 163 197 l 1,27,-1
 163 123 l 1,28,-1
 203 123 l 1,29,-1
 203 43 l 1,30,-1
 243 43 l 1,31,-1
 243 -3 l 1,32,-1
 197 -3 l 1,33,-1
 197 37 l 1,34,-1
 157 37 l 1,35,-1
 157 117 l 1,0,-1
EndSplineSet
Validated: 1
EndChar

StartChar: Y
Encoding: 89 89 24
Width: 360
GlyphClass: 1
Flags: W
LayerCount: 2
Fore
SplineSet
-3 323 m 1,0,-1
 43 323 l 1,1,-1
 43 283 l 1,2,-1
 83 283 l 1,3,-1
 83 243 l 1,4,-1
 123 243 l 1,5,-1
 123 203 l 1,6,-1
 157 203 l 1,7,-1
 157 243 l 1,8,-1
 197 243 l 1,9,-1
 197 283 l 1,10,-1
 237 283 l 1,11,-1
 237 323 l 1,12,-1
 283 323 l 1,13,-1
 283 277 l 1,14,-1
 243 277 l 1,15,-1
 243 237 l 1,16,-1
 203 237 l 1,17,-1
 203 197 l 1,18,-1
 163 197 l 1,19,-1
 163 -3 l 1,20,-1
 117 -3 l 1,21,-1
 117 197 l 1,22,-1
 77 197 l 1,23,-1
 77 237 l 1,24,-1
 37 237 l 1,25,-1
 37 277 l 1,26,-1
 -3 277 l 1,27,-1
 -3 323 l 1,0,-1
EndSplineSet
Validated: 1
EndChar

StartChar: Z
Encoding: 90 90 25
Width: 280
GlyphClass: 1
Flags: W
LayerCount: 2
Fore
SplineSet
-3 83 m 1,0,-1
 37 83 l 1,1,-1
 37 163 l 1,2,-1
 77 163 l 1,3,-1
 77 203 l 1,4,-1
 117 203 l 1,5,-1
 117 277 l 1,6,-1
 -3 277 l 1,7,-1
 -3 323 l 1,8,-1
 203 323 l 1,9,-1
 203 277 l 1,10,-1
 163 277 l 1,11,-1
 163 197 l 1,12,-1
 123 197 l 1,13,-1
 123 157 l 1,14,-1
 83 157 l 1,15,-1
 83 77 l 1,16,-1
 43 77 l 1,17,-1
 43 43 l 1,18,-1
 203 43 l 1,19,-1
 203 -3 l 1,20,-1
 -3 -3 l 1,21,-1
 -3 83 l 1,0,-1
EndSplineSet
Validated: 1
EndChar

StartChar: a
Encoding: 97 97 26
Width: 280
GlyphClass: 1
Flags: W
LayerCount: 2
Fore
SplineSet
-3 123 m 1,0,-1
 37 123 l 1,1,-1
 37 163 l 1,2,-1
 157 163 l 1,3,-1
 157 197 l 1,4,-1
 37 197 l 1,5,-1
 37 243 l 1,6,-1
 163 243 l 1,7,-1
 163 203 l 1,8,-1
 203 203 l 1,9,-1
 203 -3 l 1,10,-1
 37 -3 l 1,11,-1
 37 37 l 1,12,-1
 -3 37 l 1,13,-1
 -3 123 l 1,0,-1
43 43 m 1,14,-1
 157 43 l 1,15,-1
 157 117 l 1,16,-1
 43 117 l 1,17,-1
 43 43 l 1,14,-1
EndSplineSet
Validated: 1
EndChar

StartChar: b
Encoding: 98 98 27
Width: 280
GlyphClass: 1
Flags: W
LayerCount: 2
Fore
SplineSet
-3 323 m 1,0,-1
 43 323 l 1,1,-1
 43 243 l 1,2,-1
 163 243 l 1,3,-1
 163 203 l 1,4,-1
 203 203 l 1,5,-1
 203 37 l 1,6,-1
 163 37 l 1,7,-1
 163 -3 l 1,8,-1
 -3 -3 l 1,9,-1
 -3 323 l 1,0,-1
157 197 m 1,10,-1
 43 197 l 1,11,-1
 43 43 l 1,12,-1
 157 43 l 1,13,-1
 157 197 l 1,10,-1
EndSplineSet
Validated: 1
EndChar

StartChar: c
Encoding: 99 99 28
Width: 280
GlyphClass: 1
Flags: W
LayerCount: 2
Fore
SplineSet
43 43 m 1,0,-1
 157 43 l 1,1,-1
 157 83 l 1,2,-1
 203 83 l 1,3,-1
 203 37 l 1,4,-1
 163 37 l 1,5,-1
 163 -3 l 1,6,-1
 37 -3 l 1,7,-1
 37 37 l 1,8,-1
 -3 37 l 1,9,-1
 -3 203 l 1,10,-1
 37 203 l 1,11,-1
 37 243 l 1,12,-1
 163 243 l 1,13,-1
 163 203 l 1,14,-1
 203 203 l 1,15,-1
 203 157 l 1,16,-1
 157 157 l 1,17,-1
 157 197 l 1,18,-1
 43 197 l 1,19,-1
 43 43 l 1,0,-1
EndSplineSet
Validated: 1
EndChar

StartChar: d
Encoding: 100 100 29
Width: 280
GlyphClass: 1
Flags: W
LayerCount: 2
Fore
SplineSet
-3 203 m 1,0,-1
 37 203 l 1,1,-1
 37 243 l 1,2,-1
 157 243 l 1,3,-1
 157 323 l 1,4,-1
 203 323 l 1,5,-1
 203 -3 l 1,6,-1
 37 -3 l 1,7,-1
 37 37 l 1,8,-1
 -3 37 l 1,9,-1
 -3 203 l 1,0,-1
43 43 m 1,10,-1
 157 43 l 1,11,-1
 157 197 l 1,12,-1
 43 197 l 1,13,-1
 43 43 l 1,10,-1
EndSplineSet
Validated: 1
EndChar

StartChar: e
Encoding: 101 101 30
Width: 280
GlyphClass: 1
Flags: W
LayerCount: 2
Fore
SplineSet
43 43 m 1,0,-1
 157 43 l 1,1,-1
 157 83 l 1,2,-1
 203 83 l 1,3,-1
 203 37 l 1,4,-1
 163 37 l 1,5,-1
 163 -3 l 1,6,-1
 37 -3 l 1,7,-1
 37 37 l 1,8,-1
 -3 37 l 1,9,-1
 -3 203 l 1,10,-1
 37 203 l 1,11,-1
 37 243 l 1,12,-1
 163 243 l 1,13,-1
 163 203 l 1,14,-1
 203 203 l 1,15,-1
 203 117 l 1,16,-1
 43 117 l 1,17,-1
 43 43 l 1,0,-1
43 163 m 1,18,-1
 157 163 l 1,19,-1
 157 197 l 1,20,-1
 43 197 l 1,21,-1
 43 163 l 1,18,-1
EndSplineSet
Validated: 1
EndChar

StartChar: f
Encoding: 102 102 31
Width: 240
GlyphClass: 1
Flags: W
LayerCount: 2
Fore
SplineSet
83 243 m 1,0,-1
 123 243 l 1,1,-1
 123 197 l 1,2,-1
 83 197 l 1,3,-1
 83 -3 l 1,4,-1
 37 -3 l 1,5,-1
 37 197 l 1,6,-1
 -3 197 l 1,7,-1
 -3 243 l 1,8,-1
 37 243 l 1,9,-1
 37 283 l 1,10,-1
 77 283 l 1,11,-1
 77 323 l 1,12,-1
 163 323 l 1,13,-1
 163 277 l 1,14,-1
 83 277 l 1,15,-1
 83 243 l 1,0,-1
EndSplineSet
Validated: 1
EndChar

StartChar: g
Encoding: 103 103 32
Width: 320
GlyphClass: 1
Flags: W
LayerCount: 2
Fore
SplineSet
43 43 m 1,0,-1
 203 43 l 1,1,-1
 203 3 l 1,2,-1
 243 3 l 1,3,-1
 243 -43 l 1,4,-1
 203 -43 l 1,5,-1
 203 -83 l 1,6,-1
 37 -83 l 1,7,-1
 37 -43 l 1,8,-1
 -3 -43 l 1,9,-1
 -3 3 l 1,10,-1
 37 3 l 1,11,-1
 37 37 l 1,12,-1
 -3 37 l 1,13,-1
 -3 83 l 1,14,-1
 37 83 l 1,15,-1
 37 117 l 1,16,-1
 -3 117 l 1,17,-1
 -3 203 l 1,18,-1
 37 203 l 1,19,-1
 37 243 l 1,20,-1
 203 243 l 1,21,-1
 203 117 l 1,22,-1
 163 117 l 1,23,-1
 163 77 l 1,24,-1
 43 77 l 1,25,-1
 43 43 l 1,0,-1
43 123 m 1,26,-1
 157 123 l 1,27,-1
 157 197 l 1,28,-1
 43 197 l 1,29,-1
 43 123 l 1,26,-1
43 -37 m 1,30,-1
 197 -37 l 1,31,-1
 197 -3 l 1,32,-1
 43 -3 l 1,33,-1
 43 -37 l 1,30,-1
EndSplineSet
Validated: 1
EndChar

StartChar: h
Encoding: 104 104 33
Width: 280
GlyphClass: 1
Flags: W
LayerCount: 2
Fore
SplineSet
-3 323 m 1,0,-1
 43 323 l 1,1,-1
 43 243 l 1,2,-1
 163 243 l 1,3,-1
 163 203 l 1,4,-1
 203 203 l 1,5,-1
 203 -3 l 1,6,-1
 157 -3 l 1,7,-1
 157 197 l 1,8,-1
 43 197 l 1,9,-1
 43 -3 l 1,10,-1
 -3 -3 l 1,11,-1
 -3 323 l 1,0,-1
EndSplineSet
Validated: 1
EndChar

StartChar: i
Encoding: 105 105 34
Width: 160
GlyphClass: 1
Flags: W
LayerCount: 2
Fore
SplineSet
-3 243 m 1,0,-1
 83 243 l 1,1,-1
 83 -3 l 1,2,-1
 37 -3 l 1,3,-1
 37 197 l 1,4,-1
 -3 197 l 1,5,-1
 -3 243 l 1,0,-1
37 323 m 1,6,-1
 83 323 l 1,7,-1
 83 277 l 1,8,-1
 37 277 l 1,9,-1
 37 323 l 1,6,-1
EndSplineSet
Validated: 1
EndChar

StartChar: j
Encoding: 106 106 35
Width: 200
GlyphClass: 1
Flags: W
LayerCount: 2
Fore
SplineSet
-3 -37 m 1,0,-1
 77 -37 l 1,1,-1
 77 197 l 1,2,-1
 37 197 l 1,3,-1
 37 243 l 1,4,-1
 123 243 l 1,5,-1
 123 -43 l 1,6,-1
 83 -43 l 1,7,-1
 83 -83 l 1,8,-1
 -3 -83 l 1,9,-1
 -3 -37 l 1,0,-1
77 323 m 1,10,-1
 123 323 l 1,11,-1
 123 277 l 1,12,-1
 77 277 l 1,13,-1
 77 323 l 1,10,-1
EndSplineSet
Validated: 1
EndChar

StartChar: k
Encoding: 107 107 36
Width: 280
GlyphClass: 1
Flags: W
LayerCount: 2
Fore
SplineSet
-3 323 m 1,0,-1
 43 323 l 1,1,-1
 43 163 l 1,2,-1
 77 163 l 1,3,-1
 77 203 l 1,4,-1
 117 203 l 1,5,-1
 117 243 l 1,6,-1
 163 243 l 1,7,-1
 163 197 l 1,8,-1
 123 197 l 1,9,-1
 123 157 l 1,10,-1
 83 157 l 1,11,-1
 83 123 l 1,12,-1
 123 123 l 1,13,-1
 123 83 l 1,14,-1
 163 83 l 1,15,-1
 163 43 l 1,16,-1
 203 43 l 1,17,-1
 203 -3 l 1,18,-1
 157 -3 l 1,19,-1
 157 37 l 1,20,-1
 117 37 l 1,21,-1
 117 77 l 1,22,-1
 77 77 l 1,23,-1
 77 117 l 1,24,-1
 43 117 l 1,25,-1
 43 -3 l 1,26,-1
 -3 -3 l 1,27,-1
 -3 323 l 1,0,-1
EndSplineSet
Validated: 1
EndChar

StartChar: l
Encoding: 108 108 37
Width: 120
GlyphClass: 1
Flags: W
LayerCount: 2
Fore
SplineSet
-3 323 m 1,0,-1
 43 323 l 1,1,-1
 43 -3 l 1,2,-1
 -3 -3 l 1,3,-1
 -3 323 l 1,0,-1
EndSplineSet
Validated: 1
EndChar

StartChar: m
Encoding: 109 109 38
Width: 360
GlyphClass: 1
Flags: W
LayerCount: 2
Fore
SplineSet
-3 243 m 1,0,-1
 243 243 l 1,1,-1
 243 203 l 1,2,-1
 283 203 l 1,3,-1
 283 -3 l 1,4,-1
 237 -3 l 1,5,-1
 237 197 l 1,6,-1
 163 197 l 1,7,-1
 163 -3 l 1,8,-1
 117 -3 l 1,9,-1
 117 197 l 1,10,-1
 43 197 l 1,11,-1
 43 -3 l 1,12,-1
 -3 -3 l 1,13,-1
 -3 243 l 1,0,-1
EndSplineSet
Validated: 1
EndChar

StartChar: n
Encoding: 110 110 39
Width: 280
GlyphClass: 1
Flags: W
LayerCount: 2
Fore
SplineSet
-3 243 m 1,0,-1
 163 243 l 1,1,-1
 163 203 l 1,2,-1
 203 203 l 1,3,-1
 203 -3 l 1,4,-1
 157 -3 l 1,5,-1
 157 197 l 1,6,-1
 43 197 l 1,7,-1
 43 -3 l 1,8,-1
 -3 -3 l 1,9,-1
 -3 243 l 1,0,-1
EndSplineSet
Validated: 1
EndChar

StartChar: o
Encoding: 111 111 40
Width: 280
GlyphClass: 1
Flags: W
LayerCount: 2
Fore
SplineSet
-3 203 m 1,0,-1
 37 203 l 1,1,-1
 37 243 l 1,2,-1
 163 243 l 1,3,-1
 163 203 l 1,4,-1
 203 203 l 1,5,-1
 203 37 l 1,6,-1
 163 37 l 1,7,-1
 163 -3 l 1,8,-1
 37 -3 l 1,9,-1
 37 37 l 1,10,-1
 -3 37 l 1,11,-1
 -3 203 l 1,0,-1
43 43 m 1,12,-1
 157 43 l 1,13,-1
 157 197 l 1,14,-1
 43 197 l 1,15,-1
 43 43 l 1,12,-1
EndSplineSet
Validated: 1
EndChar

StartChar: p
Encoding: 112 112 41
Width: 280
GlyphClass: 1
Flags: W
LayerCount: 2
Fore
SplineSet
-3 243 m 1,0,-1
 163 243 l 1,1,-1
 163 203 l 1,2,-1
 203 203 l 1,3,-1
 203 37 l 1,4,-1
 163 37 l 1,5,-1
 163 -3 l 1,6,-1
 43 -3 l 1,7,-1
 43 -83 l 1,8,-1
 -3 -83 l 1,9,-1
 -3 243 l 1,0,-1
157 197 m 1,10,-1
 43 197 l 1,11,-1
 43 43 l 1,12,-1
 157 43 l 1,13,-1
 157 197 l 1,10,-1
EndSplineSet
Validated: 1
EndChar

StartChar: q
Encoding: 113 113 42
Width: 280
GlyphClass: 1
Flags: W
LayerCount: 2
Fore
SplineSet
-3 203 m 1,0,-1
 37 203 l 1,1,-1
 37 243 l 1,2,-1
 203 243 l 1,3,-1
 203 -83 l 1,4,-1
 157 -83 l 1,5,-1
 157 -3 l 1,6,-1
 37 -3 l 1,7,-1
 37 37 l 1,8,-1
 -3 37 l 1,9,-1
 -3 203 l 1,0,-1
43 43 m 1,10,-1
 157 43 l 1,11,-1
 157 197 l 1,12,-1
 43 197 l 1,13,-1
 43 43 l 1,10,-1
EndSplineSet
Validated: 1
EndChar

StartChar: r
Encoding: 114 114 43
Width: 200
GlyphClass: 1
Flags: W
LayerCount: 2
Fore
SplineSet
-3 243 m 1,0,-1
 43 243 l 1,1,-1
 43 203 l 1,2,-1
 77 203 l 1,3,-1
 77 243 l 1,4,-1
 123 243 l 1,5,-1
 123 197 l 1,6,-1
 83 197 l 1,7,-1
 83 157 l 1,8,-1
 43 157 l 1,9,-1
 43 -3 l 1,10,-1
 -3 -3 l 1,11,-1
 -3 243 l 1,0,-1
EndSplineSet
Validated: 1
EndChar

StartChar: s
Encoding: 115 115 44
Width: 240
GlyphClass: 1
Flags: W
LayerCount: 2
Fore
SplineSet
-3 43 m 1,0,-1
 117 43 l 1,1,-1
 117 77 l 1,2,-1
 77 77 l 1,3,-1
 77 117 l 1,4,-1
 37 117 l 1,5,-1
 37 157 l 1,6,-1
 -3 157 l 1,7,-1
 -3 203 l 1,8,-1
 37 203 l 1,9,-1
 37 243 l 1,10,-1
 163 243 l 1,11,-1
 163 197 l 1,12,-1
 43 197 l 1,13,-1
 43 163 l 1,14,-1
 83 163 l 1,15,-1
 83 123 l 1,16,-1
 123 123 l 1,17,-1
 123 83 l 1,18,-1
 163 83 l 1,19,-1
 163 37 l 1,20,-1
 123 37 l 1,21,-1
 123 -3 l 1,22,-1
 -3 -3 l 1,23,-1
 -3 43 l 1,0,-1
EndSplineSet
Validated: 1
EndChar

StartChar: t
Encoding: 116 116 45
Width: 240
GlyphClass: 1
Flags: W
LayerCount: 2
Fore
SplineSet
-3 243 m 1,0,-1
 37 243 l 1,1,-1
 37 323 l 1,2,-1
 83 323 l 1,3,-1
 83 243 l 1,4,-1
 163 243 l 1,5,-1
 163 197 l 1,6,-1
 83 197 l 1,7,-1
 83 43 l 1,8,-1
 163 43 l 1,9,-1
 163 -3 l 1,10,-1
 77 -3 l 1,11,-1
 77 37 l 1,12,-1
 37 37 l 1,13,-1
 37 197 l 1,14,-1
 -3 197 l 1,15,-1
 -3 243 l 1,0,-1
EndSplineSet
Validated: 1
EndChar

StartChar: u
Encoding: 117 117 46
Width: 280
GlyphClass: 1
Flags: W
LayerCount: 2
Fore
SplineSet
-3 243 m 1,0,-1
 43 243 l 1,1,-1
 43 43 l 1,2,-1
 157 43 l 1,3,-1
 157 243 l 1,4,-1
 203 243 l 1,5,-1
 203 -3 l 1,6,-1
 37 -3 l 1,7,-1
 37 37 l 1,8,-1
 -3 37 l 1,9,-1
 -3 243 l 1,0,-1
EndSplineSet
Validated: 1
EndChar

StartChar: v
Encoding: 118 118 47
Width: 280
GlyphClass: 1
Flags: W
LayerCount: 2
Fore
SplineSet
-3 243 m 1,0,-1
 43 243 l 1,1,-1
 43 163 l 1,2,-1
 83 163 l 1,3,-1
 83 43 l 1,4,-1
 117 43 l 1,5,-1
 117 163 l 1,6,-1
 157 163 l 1,7,-1
 157 243 l 1,8,-1
 203 243 l 1,9,-1
 203 157 l 1,10,-1
 163 157 l 1,11,-1
 163 37 l 1,12,-1
 123 37 l 1,13,-1
 123 -3 l 1,14,-1
 77 -3 l 1,15,-1
 77 37 l 1,16,-1
 37 37 l 1,17,-1
 37 157 l 1,18,-1
 -3 157 l 1,19,-1
 -3 243 l 1,0,-1
EndSplineSet
Validated: 1
EndChar

StartChar: w
Encoding: 119 119 48
Width: 360
GlyphClass: 1
Flags: W
LayerCount: 2
Fore
SplineSet
-3 243 m 1,0,-1
 43 243 l 1,1,-1
 43 43 l 1,2,-1
 77 43 l 1,3,-1
 77 163 l 1,4,-1
 117 163 l 1,5,-1
 117 243 l 1,6,-1
 163 243 l 1,7,-1
 163 163 l 1,8,-1
 203 163 l 1,9,-1
 203 43 l 1,10,-1
 237 43 l 1,11,-1
 237 243 l 1,12,-1
 283 243 l 1,13,-1
 283 37 l 1,14,-1
 243 37 l 1,15,-1
 243 -3 l 1,16,-1
 197 -3 l 1,17,-1
 197 37 l 1,18,-1
 157 37 l 1,19,-1
 157 157 l 1,20,-1
 123 157 l 1,21,-1
 123 37 l 1,22,-1
 83 37 l 1,23,-1
 83 -3 l 1,24,-1
 37 -3 l 1,25,-1
 37 37 l 1,26,-1
 -3 37 l 1,27,-1
 -3 243 l 1,0,-1
EndSplineSet
Validated: 1
EndChar

StartChar: x
Encoding: 120 120 49
Width: 280
GlyphClass: 1
Flags: W
LayerCount: 2
Fore
SplineSet
117 77 m 1,0,-1
 83 77 l 1,1,-1
 83 37 l 1,2,-1
 43 37 l 1,3,-1
 43 -3 l 1,4,-1
 -3 -3 l 1,5,-1
 -3 43 l 1,6,-1
 37 43 l 1,7,-1
 37 83 l 1,8,-1
 77 83 l 1,9,-1
 77 157 l 1,10,-1
 37 157 l 1,11,-1
 37 197 l 1,12,-1
 -3 197 l 1,13,-1
 -3 243 l 1,14,-1
 43 243 l 1,15,-1
 43 203 l 1,16,-1
 83 203 l 1,17,-1
 83 163 l 1,18,-1
 117 163 l 1,19,-1
 117 203 l 1,20,-1
 157 203 l 1,21,-1
 157 243 l 1,22,-1
 203 243 l 1,23,-1
 203 197 l 1,24,-1
 163 197 l 1,25,-1
 163 157 l 1,26,-1
 123 157 l 1,27,-1
 123 83 l 1,28,-1
 163 83 l 1,29,-1
 163 43 l 1,30,-1
 203 43 l 1,31,-1
 203 -3 l 1,32,-1
 157 -3 l 1,33,-1
 157 37 l 1,34,-1
 117 37 l 1,35,-1
 117 77 l 1,0,-1
EndSplineSet
Validated: 1
EndChar

StartChar: y
Encoding: 121 121 50
Width: 280
GlyphClass: 1
Flags: W
LayerCount: 2
Fore
SplineSet
-3 243 m 1,0,-1
 43 243 l 1,1,-1
 43 163 l 1,2,-1
 83 163 l 1,3,-1
 83 43 l 1,4,-1
 117 43 l 1,5,-1
 117 163 l 1,6,-1
 157 163 l 1,7,-1
 157 243 l 1,8,-1
 203 243 l 1,9,-1
 203 157 l 1,10,-1
 163 157 l 1,11,-1
 163 37 l 1,12,-1
 123 37 l 1,13,-1
 123 -43 l 1,14,-1
 83 -43 l 1,15,-1
 83 -83 l 1,16,-1
 -3 -83 l 1,17,-1
 -3 -37 l 1,18,-1
 77 -37 l 1,19,-1
 77 37 l 1,20,-1
 37 37 l 1,21,-1
 37 157 l 1,22,-1
 -3 157 l 1,23,-1
 -3 243 l 1,0,-1
EndSplineSet
Validated: 1
EndChar

StartChar: z
Encoding: 122 122 51
Width: 280
GlyphClass: 1
Flags: W
LayerCount: 2
Fore
SplineSet
-3 243 m 1,0,-1
 203 243 l 1,1,-1
 203 157 l 1,2,-1
 163 157 l 1,3,-1
 163 117 l 1,4,-1
 123 117 l 1,5,-1
 123 77 l 1,6,-1
 83 77 l 1,7,-1
 83 43 l 1,8,-1
 203 43 l 1,9,-1
 203 -3 l 1,10,-1
 -3 -3 l 1,11,-1
 -3 43 l 1,12,-1
 37 43 l 1,13,-1
 37 83 l 1,14,-1
 77 83 l 1,15,-1
 77 123 l 1,16,-1
 117 123 l 1,17,-1
 117 163 l 1,18,-1
 157 163 l 1,19,-1
 157 197 l 1,20,-1
 -3 197 l 1,21,-1
 -3 243 l 1,0,-1
EndSplineSet
Validated: 1
EndChar

StartChar: period
Encoding: 46 46 52
Width: 120
GlyphClass: 1
Flags: W
LayerCount: 2
Fore
SplineSet
-3 83 m 1,0,-1
 43 83 l 1,1,-1
 43 -3 l 1,2,-1
 -3 -3 l 1,3,-1
 -3 83 l 1,0,-1
EndSplineSet
Validated: 1
EndChar

StartChar: comma
Encoding: 44 44 53
Width: 160
GlyphClass: 1
Flags: W
LayerCount: 2
Fore
SplineSet
-3 83 m 1,0,-1
 83 83 l 1,1,-1
 83 -43 l 1,2,-1
 43 -43 l 1,3,-1
 43 -83 l 1,4,-1
 -3 -83 l 1,5,-1
 -3 -37 l 1,6,-1
 37 -37 l 1,7,-1
 37 37 l 1,8,-1
 -3 37 l 1,9,-1
 -3 83 l 1,0,-1
EndSplineSet
Validated: 1
EndChar

StartChar: hyphen
Encoding: 45 45 54
Width: 320
GlyphClass: 1
Flags: W
LayerCount: 2
Fore
SplineSet
-3 203 m 1,0,-1
 243 203 l 1,1,-1
 243 157 l 1,2,-1
 -3 157 l 1,3,-1
 -3 203 l 1,0,-1
EndSplineSet
Validated: 1
EndChar

StartChar: zero
Encoding: 48 48 55
Width: 280
GlyphClass: 1
Flags: W
LayerCount: 2
Fore
SplineSet
-3 283 m 1,0,-1
 37 283 l 1,1,-1
 37 323 l 1,2,-1
 163 323 l 1,3,-1
 163 283 l 1,4,-1
 203 283 l 1,5,-1
 203 37 l 1,6,-1
 163 37 l 1,7,-1
 163 -3 l 1,8,-1
 37 -3 l 1,9,-1
 37 37 l 1,10,-1
 -3 37 l 1,11,-1
 -3 283 l 1,0,-1
157 277 m 1,12,-1
 43 277 l 1,13,-1
 43 43 l 1,14,-1
 157 43 l 1,15,-1
 157 277 l 1,12,-1
EndSplineSet
Validated: 1
EndChar

StartChar: one
Encoding: 49 49 56
Width: 200
GlyphClass: 1
Flags: W
LayerCount: 2
Fore
SplineSet
77 237 m 1,0,-1
 43 237 l 1,1,-1
 43 197 l 1,2,-1
 -3 197 l 1,3,-1
 -3 243 l 1,4,-1
 37 243 l 1,5,-1
 37 283 l 1,6,-1
 77 283 l 1,7,-1
 77 323 l 1,8,-1
 123 323 l 1,9,-1
 123 -3 l 1,10,-1
 77 -3 l 1,11,-1
 77 237 l 1,0,-1
EndSplineSet
Validated: 1
EndChar

StartChar: two
Encoding: 50 50 57
Width: 280
GlyphClass: 1
Flags: W
LayerCount: 2
Fore
SplineSet
-3 283 m 1,0,-1
 37 283 l 1,1,-1
 37 323 l 1,2,-1
 163 323 l 1,3,-1
 163 283 l 1,4,-1
 203 283 l 1,5,-1
 203 197 l 1,6,-1
 163 197 l 1,7,-1
 163 117 l 1,8,-1
 123 117 l 1,9,-1
 123 77 l 1,10,-1
 83 77 l 1,11,-1
 83 43 l 1,12,-1
 203 43 l 1,13,-1
 203 -3 l 1,14,-1
 -3 -3 l 1,15,-1
 -3 43 l 1,16,-1
 37 43 l 1,17,-1
 37 83 l 1,18,-1
 77 83 l 1,19,-1
 77 123 l 1,20,-1
 117 123 l 1,21,-1
 117 203 l 1,22,-1
 157 203 l 1,23,-1
 157 277 l 1,24,-1
 43 277 l 1,25,-1
 43 237 l 1,26,-1
 -3 237 l 1,27,-1
 -3 283 l 1,0,-1
EndSplineSet
Validated: 1
EndChar

StartChar: three
Encoding: 51 51 58
Width: 280
GlyphClass: 1
Flags: W
LayerCount: 2
Fore
SplineSet
43 237 m 1,0,-1
 -3 237 l 1,1,-1
 -3 283 l 1,2,-1
 37 283 l 1,3,-1
 37 323 l 1,4,-1
 163 323 l 1,5,-1
 163 283 l 1,6,-1
 203 283 l 1,7,-1
 203 197 l 1,8,-1
 163 197 l 1,9,-1
 163 163 l 1,10,-1
 203 163 l 1,11,-1
 203 37 l 1,12,-1
 163 37 l 1,13,-1
 163 -3 l 1,14,-1
 37 -3 l 1,15,-1
 37 37 l 1,16,-1
 -3 37 l 1,17,-1
 -3 83 l 1,18,-1
 43 83 l 1,19,-1
 43 43 l 1,20,-1
 157 43 l 1,21,-1
 157 157 l 1,22,-1
 77 157 l 1,23,-1
 77 203 l 1,24,-1
 157 203 l 1,25,-1
 157 277 l 1,26,-1
 43 277 l 1,27,-1
 43 237 l 1,0,-1
EndSplineSet
Validated: 1
EndChar

StartChar: four
Encoding: 52 52 59
Width: 280
GlyphClass: 1
Flags: W
LayerCount: 2
Fore
SplineSet
-3 163 m 1,0,-1
 37 163 l 1,1,-1
 37 203 l 1,2,-1
 77 203 l 1,3,-1
 77 243 l 1,4,-1
 117 243 l 1,5,-1
 117 283 l 1,6,-1
 157 283 l 1,7,-1
 157 323 l 1,8,-1
 203 323 l 1,9,-1
 203 -3 l 1,10,-1
 157 -3 l 1,11,-1
 157 77 l 1,12,-1
 -3 77 l 1,13,-1
 -3 163 l 1,0,-1
157 237 m 1,14,-1
 123 237 l 1,15,-1
 123 197 l 1,16,-1
 83 197 l 1,17,-1
 83 157 l 1,18,-1
 43 157 l 1,19,-1
 43 123 l 1,20,-1
 157 123 l 1,21,-1
 157 237 l 1,14,-1
EndSplineSet
Validated: 1
EndChar

StartChar: five
Encoding: 53 53 60
Width: 280
GlyphClass: 1
Flags: W
LayerCount: 2
Fore
SplineSet
-3 43 m 1,0,-1
 157 43 l 1,1,-1
 157 157 l 1,2,-1
 43 157 l 1,3,-1
 43 117 l 1,4,-1
 -3 117 l 1,5,-1
 -3 323 l 1,6,-1
 163 323 l 1,7,-1
 163 277 l 1,8,-1
 43 277 l 1,9,-1
 43 203 l 1,10,-1
 163 203 l 1,11,-1
 163 163 l 1,12,-1
 203 163 l 1,13,-1
 203 37 l 1,14,-1
 163 37 l 1,15,-1
 163 -3 l 1,16,-1
 -3 -3 l 1,17,-1
 -3 43 l 1,0,-1
EndSplineSet
Validated: 1
EndChar

StartChar: six
Encoding: 54 54 61
Width: 280
GlyphClass: 1
Flags: W
LayerCount: 2
Fore
SplineSet
-3 203 m 1,0,-1
 37 203 l 1,1,-1
 37 243 l 1,2,-1
 77 243 l 1,3,-1
 77 283 l 1,4,-1
 117 283 l 1,5,-1
 117 323 l 1,6,-1
 163 323 l 1,7,-1
 163 277 l 1,8,-1
 123 277 l 1,9,-1
 123 237 l 1,10,-1
 83 237 l 1,11,-1
 83 203 l 1,12,-1
 163 203 l 1,13,-1
 163 163 l 1,14,-1
 203 163 l 1,15,-1
 203 37 l 1,16,-1
 163 37 l 1,17,-1
 163 -3 l 1,18,-1
 37 -3 l 1,19,-1
 37 37 l 1,20,-1
 -3 37 l 1,21,-1
 -3 203 l 1,0,-1
43 43 m 1,22,-1
 157 43 l 1,23,-1
 157 157 l 1,24,-1
 43 157 l 1,25,-1
 43 43 l 1,22,-1
EndSplineSet
Validated: 1
EndChar

StartChar: seven
Encoding: 55 55 62
Width: 280
GlyphClass: 1
Flags: W
LayerCount: 2
Fore
SplineSet
-3 323 m 1,0,-1
 203 323 l 1,1,-1
 203 237 l 1,2,-1
 163 237 l 1,3,-1
 163 157 l 1,4,-1
 123 157 l 1,5,-1
 123 77 l 1,6,-1
 83 77 l 1,7,-1
 83 -3 l 1,8,-1
 37 -3 l 1,9,-1
 37 83 l 1,10,-1
 77 83 l 1,11,-1
 77 163 l 1,12,-1
 117 163 l 1,13,-1
 117 243 l 1,14,-1
 157 243 l 1,15,-1
 157 277 l 1,16,-1
 -3 277 l 1,17,-1
 -3 323 l 1,0,-1
EndSplineSet
Validated: 1
EndChar

StartChar: eight
Encoding: 56 56 63
Width: 280
GlyphClass: 1
Flags: W
LayerCount: 2
Fore
SplineSet
-3 283 m 1,0,-1
 37 283 l 1,1,-1
 37 323 l 1,2,-1
 163 323 l 1,3,-1
 163 283 l 1,4,-1
 203 283 l 1,5,-1
 203 197 l 1,6,-1
 163 197 l 1,7,-1
 163 163 l 1,8,-1
 203 163 l 1,9,-1
 203 37 l 1,10,-1
 163 37 l 1,11,-1
 163 -3 l 1,12,-1
 37 -3 l 1,13,-1
 37 37 l 1,14,-1
 -3 37 l 1,15,-1
 -3 163 l 1,16,-1
 37 163 l 1,17,-1
 37 197 l 1,18,-1
 -3 197 l 1,19,-1
 -3 283 l 1,0,-1
157 157 m 1,20,-1
 43 157 l 1,21,-1
 43 43 l 1,22,-1
 157 43 l 1,23,-1
 157 157 l 1,20,-1
43 203 m 1,24,-1
 157 203 l 1,25,-1
 157 277 l 1,26,-1
 43 277 l 1,27,-1
 43 203 l 1,24,-1
EndSplineSet
Validated: 1
EndChar

StartChar: nine
Encoding: 57 57 64
Width: 280
GlyphClass: 1
Flags: W
LayerCount: 2
Fore
SplineSet
-3 283 m 1,0,-1
 37 283 l 1,1,-1
 37 323 l 1,2,-1
 163 323 l 1,3,-1
 163 283 l 1,4,-1
 203 283 l 1,5,-1
 203 117 l 1,6,-1
 163 117 l 1,7,-1
 163 37 l 1,8,-1
 123 37 l 1,9,-1
 123 -3 l 1,10,-1
 77 -3 l 1,11,-1
 77 43 l 1,12,-1
 117 43 l 1,13,-1
 117 117 l 1,14,-1
 37 117 l 1,15,-1
 37 157 l 1,16,-1
 -3 157 l 1,17,-1
 -3 283 l 1,0,-1
43 163 m 1,18,-1
 157 163 l 1,19,-1
 157 277 l 1,20,-1
 43 277 l 1,21,-1
 43 163 l 1,18,-1
EndSplineSet
Validated: 1
EndChar

StartChar: question
Encoding: 63 63 65
Width: 240
GlyphClass: 1
Flags: W
LayerCount: 2
Fore
SplineSet
-3 323 m 1,0,-1
 123 323 l 1,1,-1
 123 283 l 1,2,-1
 163 283 l 1,3,-1
 163 237 l 1,4,-1
 123 237 l 1,5,-1
 123 197 l 1,6,-1
 83 197 l 1,7,-1
 83 117 l 1,8,-1
 37 117 l 1,9,-1
 37 203 l 1,10,-1
 77 203 l 1,11,-1
 77 243 l 1,12,-1
 117 243 l 1,13,-1
 117 277 l 1,14,-1
 -3 277 l 1,15,-1
 -3 323 l 1,0,-1
37 83 m 1,16,-1
 83 83 l 1,17,-1
 83 -3 l 1,18,-1
 37 -3 l 1,19,-1
 37 83 l 1,16,-1
EndSplineSet
Validated: 1
EndChar

StartChar: exclam
Encoding: 33 33 66
Width: 120
GlyphClass: 1
Flags: W
LayerCount: 2
Fore
SplineSet
-3 323 m 1,0,-1
 43 323 l 1,1,-1
 43 117 l 1,2,-1
 -3 117 l 1,3,-1
 -3 323 l 1,0,-1
-3 83 m 1,4,-1
 43 83 l 1,5,-1
 43 -3 l 1,6,-1
 -3 -3 l 1,7,-1
 -3 83 l 1,4,-1
EndSplineSet
Validated: 1
EndChar

StartChar: colon
Encoding: 58 58 67
Width: 120
GlyphClass: 1
Flags: W
LayerCount: 2
Fore
SplineSet
-3 123 m 1,0,-1
 43 123 l 1,1,-1
 43 37 l 1,2,-1
 -3 37 l 1,3,-1
 -3 123 l 1,0,-1
-3 283 m 1,4,-1
 43 283 l 1,5,-1
 43 197 l 1,6,-1
 -3 197 l 1,7,-1
 -3 283 l 1,4,-1
EndSplineSet
Validated: 1
EndChar

StartChar: underscore
Encoding: 95 95 68
Width: 280
GlyphClass: 1
Flags: W
LayerCount: 2
Fore
SplineSet
-3 43 m 1,0,-1
 203 43 l 1,1,-1
 203 -3 l 1,2,-1
 -3 -3 l 1,3,-1
 -3 43 l 1,0,-1
EndSplineSet
Validated: 1
EndChar

StartChar: slash
Encoding: 47 47 69
Width: 240
GlyphClass: 1
Flags: W
LayerCount: 2
Fore
SplineSet
-3 83 m 1,0,-1
 37 83 l 1,1,-1
 37 163 l 1,2,-1
 77 163 l 1,3,-1
 77 243 l 1,4,-1
 117 243 l 1,5,-1
 117 323 l 1,6,-1
 163 323 l 1,7,-1
 163 237 l 1,8,-1
 123 237 l 1,9,-1
 123 157 l 1,10,-1
 83 157 l 1,11,-1
 83 77 l 1,12,-1
 43 77 l 1,13,-1
 43 -3 l 1,14,-1
 -3 -3 l 1,15,-1
 -3 83 l 1,0,-1
EndSplineSet
Validated: 1
EndChar

StartChar: asciitilde
Encoding: 126 126 70
Width: 360
GlyphClass: 1
Flags: W
LayerCount: 2
Fore
SplineSet
43 117 m 1,0,-1
 -3 117 l 1,1,-1
 -3 163 l 1,2,-1
 37 163 l 1,3,-1
 37 203 l 1,4,-1
 123 203 l 1,5,-1
 123 163 l 1,6,-1
 163 163 l 1,7,-1
 163 123 l 1,8,-1
 237 123 l 1,9,-1
 237 163 l 1,10,-1
 283 163 l 1,11,-1
 283 117 l 1,12,-1
 243 117 l 1,13,-1
 243 77 l 1,14,-1
 157 77 l 1,15,-1
 157 117 l 1,16,-1
 117 117 l 1,17,-1
 117 157 l 1,18,-1
 43 157 l 1,19,-1
 43 117 l 1,0,-1
EndSplineSet
Validated: 1
EndChar

StartChar: quoteleft
Encoding: 8216 8216 71
Width: 160
GlyphClass: 1
Flags: W
LayerCount: 2
Fore
SplineSet
-3 283 m 1,0,-1
 37 283 l 1,1,-1
 37 323 l 1,2,-1
 83 323 l 1,3,-1
 83 277 l 1,4,-1
 43 277 l 1,5,-1
 43 203 l 1,6,-1
 83 203 l 1,7,-1
 83 157 l 1,8,-1
 -3 157 l 1,9,-1
 -3 283 l 1,0,-1
EndSplineSet
Validated: 1
EndChar

StartChar: quoteright
Encoding: 8217 8217 72
Width: 160
GlyphClass: 1
Flags: W
LayerCount: 2
Fore
SplineSet
-3 323 m 1,0,-1
 83 323 l 1,1,-1
 83 197 l 1,2,-1
 43 197 l 1,3,-1
 43 157 l 1,4,-1
 -3 157 l 1,5,-1
 -3 203 l 1,6,-1
 37 203 l 1,7,-1
 37 277 l 1,8,-1
 -3 277 l 1,9,-1
 -3 323 l 1,0,-1
EndSplineSet
Validated: 1
EndChar

StartChar: quotedblleft
Encoding: 8220 8220 73
Width: 200
GlyphClass: 1
Flags: W
LayerCount: 2
Fore
SplineSet
-3 323 m 1,0,-1
 43 323 l 1,1,-1
 43 197 l 1,2,-1
 -3 197 l 1,3,-1
 -3 323 l 1,0,-1
77 323 m 1,4,-1
 123 323 l 1,5,-1
 123 197 l 1,6,-1
 77 197 l 1,7,-1
 77 323 l 1,4,-1
EndSplineSet
Validated: 1
EndChar

StartChar: quotedblright
Encoding: 8221 8221 74
Width: 200
GlyphClass: 1
Flags: W
LayerCount: 2
Fore
SplineSet
-3 323 m 1,0,-1
 43 323 l 1,1,-1
 43 197 l 1,2,-1
 -3 197 l 1,3,-1
 -3 323 l 1,0,-1
77 323 m 1,4,-1
 123 323 l 1,5,-1
 123 197 l 1,6,-1
 77 197 l 1,7,-1
 77 323 l 1,4,-1
EndSplineSet
Validated: 1
EndChar

StartChar: parenleft
Encoding: 40 40 75
Width: 200
GlyphClass: 1
Flags: W
LayerCount: 2
Fore
SplineSet
-3 243 m 1,0,-1
 37 243 l 1,1,-1
 37 323 l 1,2,-1
 77 323 l 1,3,-1
 77 363 l 1,4,-1
 123 363 l 1,5,-1
 123 317 l 1,6,-1
 83 317 l 1,7,-1
 83 237 l 1,8,-1
 43 237 l 1,9,-1
 43 123 l 1,10,-1
 83 123 l 1,11,-1
 83 43 l 1,12,-1
 123 43 l 1,13,-1
 123 -3 l 1,14,-1
 77 -3 l 1,15,-1
 77 37 l 1,16,-1
 37 37 l 1,17,-1
 37 117 l 1,18,-1
 -3 117 l 1,19,-1
 -3 243 l 1,0,-1
EndSplineSet
Validated: 1
EndChar

StartChar: parenright
Encoding: 41 41 76
Width: 200
GlyphClass: 1
Flags: W
LayerCount: 2
Fore
SplineSet
-3 363 m 1,0,-1
 43 363 l 1,1,-1
 43 323 l 1,2,-1
 83 323 l 1,3,-1
 83 243 l 1,4,-1
 123 243 l 1,5,-1
 123 117 l 1,6,-1
 83 117 l 1,7,-1
 83 37 l 1,8,-1
 43 37 l 1,9,-1
 43 -3 l 1,10,-1
 -3 -3 l 1,11,-1
 -3 43 l 1,12,-1
 37 43 l 1,13,-1
 37 123 l 1,14,-1
 77 123 l 1,15,-1
 77 237 l 1,16,-1
 37 237 l 1,17,-1
 37 317 l 1,18,-1
 -3 317 l 1,19,-1
 -3 363 l 1,0,-1
EndSplineSet
Validated: 1
EndChar

StartChar: braceleft
Encoding: 123 123 77
Width: 200
GlyphClass: 1
Flags: W
LayerCount: 2
Fore
SplineSet
-3 203 m 1,0,-1
 37 203 l 1,1,-1
 37 323 l 1,2,-1
 77 323 l 1,3,-1
 77 363 l 1,4,-1
 123 363 l 1,5,-1
 123 317 l 1,6,-1
 83 317 l 1,7,-1
 83 197 l 1,8,-1
 43 197 l 1,9,-1
 43 163 l 1,10,-1
 83 163 l 1,11,-1
 83 43 l 1,12,-1
 123 43 l 1,13,-1
 123 -3 l 1,14,-1
 77 -3 l 1,15,-1
 77 37 l 1,16,-1
 37 37 l 1,17,-1
 37 157 l 1,18,-1
 -3 157 l 1,19,-1
 -3 203 l 1,0,-1
EndSplineSet
Validated: 1
EndChar

StartChar: braceright
Encoding: 125 125 78
Width: 200
GlyphClass: 1
Flags: W
LayerCount: 2
Fore
SplineSet
-3 363 m 1,0,-1
 43 363 l 1,1,-1
 43 323 l 1,2,-1
 83 323 l 1,3,-1
 83 203 l 1,4,-1
 123 203 l 1,5,-1
 123 157 l 1,6,-1
 83 157 l 1,7,-1
 83 37 l 1,8,-1
 43 37 l 1,9,-1
 43 -3 l 1,10,-1
 -3 -3 l 1,11,-1
 -3 43 l 1,12,-1
 37 43 l 1,13,-1
 37 163 l 1,14,-1
 77 163 l 1,15,-1
 77 197 l 1,16,-1
 37 197 l 1,17,-1
 37 317 l 1,18,-1
 -3 317 l 1,19,-1
 -3 363 l 1,0,-1
EndSplineSet
Validated: 1
EndChar

StartChar: bracketleft
Encoding: 91 91 79
Width: 200
GlyphClass: 1
Flags: W
LayerCount: 2
Fore
SplineSet
-3 363 m 1,0,-1
 123 363 l 1,1,-1
 123 317 l 1,2,-1
 83 317 l 1,3,-1
 83 277 l 1,4,-1
 43 277 l 1,5,-1
 43 83 l 1,6,-1
 83 83 l 1,7,-1
 83 43 l 1,8,-1
 123 43 l 1,9,-1
 123 -3 l 1,10,-1
 -3 -3 l 1,11,-1
 -3 363 l 1,0,-1
EndSplineSet
Validated: 1
EndChar

StartChar: bracketright
Encoding: 93 93 80
Width: 200
GlyphClass: 1
Flags: W
LayerCount: 2
Fore
SplineSet
-3 363 m 1,0,-1
 123 363 l 1,1,-1
 123 -3 l 1,2,-1
 -3 -3 l 1,3,-1
 -3 43 l 1,4,-1
 37 43 l 1,5,-1
 37 83 l 1,6,-1
 77 83 l 1,7,-1
 77 277 l 1,8,-1
 37 277 l 1,9,-1
 37 317 l 1,10,-1
 -3 317 l 1,11,-1
 -3 363 l 1,0,-1
EndSplineSet
Validated: 1
EndChar

StartChar: plus
Encoding: 43 43 81
Width: 280
GlyphClass: 1
Flags: W
LayerCount: 2
Fore
SplineSet
123 77 m 1,0,-1
 77 77 l 1,1,-1
 77 157 l 1,2,-1
 -3 157 l 1,3,-1
 -3 203 l 1,4,-1
 77 203 l 1,5,-1
 77 283 l 1,6,-1
 123 283 l 1,7,-1
 123 203 l 1,8,-1
 203 203 l 1,9,-1
 203 157 l 1,10,-1
 123 157 l 1,11,-1
 123 77 l 1,0,-1
EndSplineSet
Validated: 1
EndChar

StartChar: equal
Encoding: 61 61 82
Width: 280
GlyphClass: 1
Flags: W
LayerCount: 2
Fore
SplineSet
-3 163 m 1,0,-1
 203 163 l 1,1,-1
 203 117 l 1,2,-1
 -3 117 l 1,3,-1
 -3 163 l 1,0,-1
-3 243 m 1,4,-1
 203 243 l 1,5,-1
 203 197 l 1,6,-1
 -3 197 l 1,7,-1
 -3 243 l 1,4,-1
EndSplineSet
Validated: 1
EndChar

StartChar: less
Encoding: 60 60 83
Width: 280
GlyphClass: 1
Flags: W
LayerCount: 2
Fore
SplineSet
-3 203 m 1,0,-1
 37 203 l 1,1,-1
 37 243 l 1,2,-1
 77 243 l 1,3,-1
 77 283 l 1,4,-1
 117 283 l 1,5,-1
 117 323 l 1,6,-1
 157 323 l 1,7,-1
 157 363 l 1,8,-1
 203 363 l 1,9,-1
 203 317 l 1,10,-1
 163 317 l 1,11,-1
 163 277 l 1,12,-1
 123 277 l 1,13,-1
 123 237 l 1,14,-1
 83 237 l 1,15,-1
 83 197 l 1,16,-1
 43 197 l 1,17,-1
 43 163 l 1,18,-1
 83 163 l 1,19,-1
 83 123 l 1,20,-1
 123 123 l 1,21,-1
 123 83 l 1,22,-1
 163 83 l 1,23,-1
 163 43 l 1,24,-1
 203 43 l 1,25,-1
 203 -3 l 1,26,-1
 157 -3 l 1,27,-1
 157 37 l 1,28,-1
 117 37 l 1,29,-1
 117 77 l 1,30,-1
 77 77 l 1,31,-1
 77 117 l 1,32,-1
 37 117 l 1,33,-1
 37 157 l 1,34,-1
 -3 157 l 1,35,-1
 -3 203 l 1,0,-1
EndSplineSet
Validated: 1
EndChar

StartChar: greater
Encoding: 62 62 84
Width: 280
GlyphClass: 1
Flags: W
LayerCount: 2
Fore
SplineSet
-3 363 m 1,0,-1
 43 363 l 1,1,-1
 43 323 l 1,2,-1
 83 323 l 1,3,-1
 83 283 l 1,4,-1
 123 283 l 1,5,-1
 123 243 l 1,6,-1
 163 243 l 1,7,-1
 163 203 l 1,8,-1
 203 203 l 1,9,-1
 203 157 l 1,10,-1
 163 157 l 1,11,-1
 163 117 l 1,12,-1
 123 117 l 1,13,-1
 123 77 l 1,14,-1
 83 77 l 1,15,-1
 83 37 l 1,16,-1
 43 37 l 1,17,-1
 43 -3 l 1,18,-1
 -3 -3 l 1,19,-1
 -3 43 l 1,20,-1
 37 43 l 1,21,-1
 37 83 l 1,22,-1
 77 83 l 1,23,-1
 77 123 l 1,24,-1
 117 123 l 1,25,-1
 117 163 l 1,26,-1
 157 163 l 1,27,-1
 157 197 l 1,28,-1
 117 197 l 1,29,-1
 117 237 l 1,30,-1
 77 237 l 1,31,-1
 77 277 l 1,32,-1
 37 277 l 1,33,-1
 37 317 l 1,34,-1
 -3 317 l 1,35,-1
 -3 363 l 1,0,-1
EndSplineSet
Validated: 1
EndChar

StartChar: percent
Encoding: 37 37 85
Width: 360
GlyphClass: 1
Flags: W
LayerCount: 2
Fore
SplineSet
-3 43 m 1,0,-1
 37 43 l 1,1,-1
 37 83 l 1,2,-1
 77 83 l 1,3,-1
 77 123 l 1,4,-1
 117 123 l 1,5,-1
 117 163 l 1,6,-1
 157 163 l 1,7,-1
 157 203 l 1,8,-1
 197 203 l 1,9,-1
 197 243 l 1,10,-1
 237 243 l 1,11,-1
 237 283 l 1,12,-1
 283 283 l 1,13,-1
 283 237 l 1,14,-1
 243 237 l 1,15,-1
 243 197 l 1,16,-1
 203 197 l 1,17,-1
 203 157 l 1,18,-1
 163 157 l 1,19,-1
 163 117 l 1,20,-1
 123 117 l 1,21,-1
 123 77 l 1,22,-1
 83 77 l 1,23,-1
 83 37 l 1,24,-1
 43 37 l 1,25,-1
 43 -3 l 1,26,-1
 -3 -3 l 1,27,-1
 -3 43 l 1,0,-1
-3 243 m 1,28,-1
 37 243 l 1,29,-1
 37 283 l 1,30,-1
 83 283 l 1,31,-1
 83 243 l 1,32,-1
 123 243 l 1,33,-1
 123 197 l 1,34,-1
 83 197 l 1,35,-1
 83 157 l 1,36,-1
 37 157 l 1,37,-1
 37 197 l 1,38,-1
 -3 197 l 1,39,-1
 -3 243 l 1,28,-1
157 83 m 1,40,-1
 197 83 l 1,41,-1
 197 123 l 1,42,-1
 243 123 l 1,43,-1
 243 83 l 1,44,-1
 283 83 l 1,45,-1
 283 37 l 1,46,-1
 243 37 l 1,47,-1
 243 -3 l 1,48,-1
 197 -3 l 1,49,-1
 197 37 l 1,50,-1
 157 37 l 1,51,-1
 157 83 l 1,40,-1
43 203 m 1,52,-1
 77 203 l 1,53,-1
 77 237 l 1,54,-1
 43 237 l 1,55,-1
 43 203 l 1,52,-1
203 43 m 1,56,-1
 237 43 l 1,57,-1
 237 77 l 1,58,-1
 203 77 l 1,59,-1
 203 43 l 1,56,-1
EndSplineSet
Validated: 1
EndChar

StartChar: numbersign
Encoding: 35 35 86
Width: 360
GlyphClass: 1
Flags: W
LayerCount: 2
Fore
SplineSet
117 77 m 1,0,-1
 83 77 l 1,1,-1
 83 -3 l 1,2,-1
 37 -3 l 1,3,-1
 37 77 l 1,4,-1
 -3 77 l 1,5,-1
 -3 123 l 1,6,-1
 77 123 l 1,7,-1
 77 197 l 1,8,-1
 37 197 l 1,9,-1
 37 243 l 1,10,-1
 117 243 l 1,11,-1
 117 323 l 1,12,-1
 163 323 l 1,13,-1
 163 243 l 1,14,-1
 197 243 l 1,15,-1
 197 323 l 1,16,-1
 243 323 l 1,17,-1
 243 243 l 1,18,-1
 283 243 l 1,19,-1
 283 197 l 1,20,-1
 203 197 l 1,21,-1
 203 123 l 1,22,-1
 243 123 l 1,23,-1
 243 77 l 1,24,-1
 163 77 l 1,25,-1
 163 -3 l 1,26,-1
 117 -3 l 1,27,-1
 117 77 l 1,0,-1
123 123 m 1,28,-1
 157 123 l 1,29,-1
 157 197 l 1,30,-1
 123 197 l 1,31,-1
 123 123 l 1,28,-1
EndSplineSet
Validated: 1
EndChar

StartChar: ampersand
Encoding: 38 38 87
Width: 360
GlyphClass: 1
Flags: W
LayerCount: 2
Fore
SplineSet
-3 123 m 1,0,-1
 37 123 l 1,1,-1
 37 163 l 1,2,-1
 77 163 l 1,3,-1
 77 197 l 1,4,-1
 37 197 l 1,5,-1
 37 243 l 1,6,-1
 77 243 l 1,7,-1
 77 283 l 1,8,-1
 163 283 l 1,9,-1
 163 243 l 1,10,-1
 203 243 l 1,11,-1
 203 197 l 1,12,-1
 163 197 l 1,13,-1
 163 123 l 1,14,-1
 237 123 l 1,15,-1
 237 163 l 1,16,-1
 283 163 l 1,17,-1
 283 117 l 1,18,-1
 243 117 l 1,19,-1
 243 43 l 1,20,-1
 283 43 l 1,21,-1
 283 -3 l 1,22,-1
 237 -3 l 1,23,-1
 237 37 l 1,24,-1
 163 37 l 1,25,-1
 163 -3 l 1,26,-1
 37 -3 l 1,27,-1
 37 37 l 1,28,-1
 -3 37 l 1,29,-1
 -3 123 l 1,0,-1
117 157 m 1,30,-1
 83 157 l 1,31,-1
 83 117 l 1,32,-1
 43 117 l 1,33,-1
 43 43 l 1,34,-1
 157 43 l 1,35,-1
 157 117 l 1,36,-1
 117 117 l 1,37,-1
 117 157 l 1,30,-1
157 203 m 1,38,-1
 157 237 l 1,39,-1
 83 237 l 1,40,-1
 83 203 l 1,41,-1
 157 203 l 1,38,-1
EndSplineSet
Validated: 1
EndChar

StartChar: asterisk
Encoding: 42 42 88
Width: 280
GlyphClass: 1
Flags: W
LayerCount: 2
Fore
SplineSet
157 117 m 1,0,-1
 123 117 l 1,1,-1
 123 37 l 1,2,-1
 77 37 l 1,3,-1
 77 117 l 1,4,-1
 43 117 l 1,5,-1
 43 77 l 1,6,-1
 -3 77 l 1,7,-1
 -3 123 l 1,8,-1
 37 123 l 1,9,-1
 37 197 l 1,10,-1
 -3 197 l 1,11,-1
 -3 243 l 1,12,-1
 43 243 l 1,13,-1
 43 203 l 1,14,-1
 77 203 l 1,15,-1
 77 283 l 1,16,-1
 123 283 l 1,17,-1
 123 203 l 1,18,-1
 157 203 l 1,19,-1
 157 243 l 1,20,-1
 203 243 l 1,21,-1
 203 197 l 1,22,-1
 163 197 l 1,23,-1
 163 123 l 1,24,-1
 203 123 l 1,25,-1
 203 77 l 1,26,-1
 157 77 l 1,27,-1
 157 117 l 1,0,-1
EndSplineSet
Validated: 1
EndChar

StartChar: D
Encoding: 68 68 89
Width: 320
GlyphClass: 1
Flags: W
LayerCount: 2
Fore
SplineSet
-3 323 m 1,0,-1
 163 323 l 1,1,-1
 163 283 l 1,2,-1
 203 283 l 1,3,-1
 203 243 l 1,4,-1
 243 243 l 1,5,-1
 243 77 l 1,6,-1
 203 77 l 1,7,-1
 203 37 l 1,8,-1
 163 37 l 1,9,-1
 163 -3 l 1,10,-1
 -3 -3 l 1,11,-1
 -3 323 l 1,0,-1
43 43 m 1,12,-1
 157 43 l 1,13,-1
 157 83 l 1,14,-1
 197 83 l 1,15,-1
 197 237 l 1,16,-1
 157 237 l 1,17,-1
 157 277 l 1,18,-1
 43 277 l 1,19,-1
 43 43 l 1,12,-1
EndSplineSet
Validated: 1
EndChar

StartChar: A
Encoding: 65 65 90
Width: 280
GlyphClass: 1
Flags: W
LayerCount: 2
Fore
SplineSet
43 -3 m 1,0,-1
 -3 -3 l 1,1,-1
 -3 123 l 1,2,-1
 37 123 l 1,3,-1
 37 243 l 1,4,-1
 77 243 l 1,5,-1
 77 323 l 1,6,-1
 123 323 l 1,7,-1
 123 243 l 1,8,-1
 163 243 l 1,9,-1
 163 123 l 1,10,-1
 203 123 l 1,11,-1
 203 -3 l 1,12,-1
 157 -3 l 1,13,-1
 157 77 l 1,14,-1
 43 77 l 1,15,-1
 43 -3 l 1,0,-1
117 237 m 1,16,-1
 83 237 l 1,17,-1
 83 123 l 1,18,-1
 117 123 l 1,19,-1
 117 237 l 1,16,-1
EndSplineSet
Validated: 1
EndChar

StartChar: B
Encoding: 66 66 91
Width: 280
GlyphClass: 1
Flags: W
LayerCount: 2
Fore
SplineSet
-3 323 m 1,0,-1
 163 323 l 1,1,-1
 163 283 l 1,2,-1
 203 283 l 1,3,-1
 203 197 l 1,4,-1
 163 197 l 1,5,-1
 163 163 l 1,6,-1
 203 163 l 1,7,-1
 203 37 l 1,8,-1
 163 37 l 1,9,-1
 163 -3 l 1,10,-1
 -3 -3 l 1,11,-1
 -3 323 l 1,0,-1
43 43 m 1,12,-1
 157 43 l 1,13,-1
 157 157 l 1,14,-1
 43 157 l 1,15,-1
 43 43 l 1,12,-1
43 203 m 1,16,-1
 157 203 l 1,17,-1
 157 277 l 1,18,-1
 43 277 l 1,19,-1
 43 203 l 1,16,-1
EndSplineSet
Validated: 1
EndChar

StartChar: C
Encoding: 67 67 92
Width: 320
GlyphClass: 1
Flags: W
LayerCount: 2
Fore
SplineSet
83 237 m 1,0,-1
 43 237 l 1,1,-1
 43 83 l 1,2,-1
 83 83 l 1,3,-1
 83 43 l 1,4,-1
 197 43 l 1,5,-1
 197 83 l 1,6,-1
 243 83 l 1,7,-1
 243 37 l 1,8,-1
 203 37 l 1,9,-1
 203 -3 l 1,10,-1
 77 -3 l 1,11,-1
 77 37 l 1,12,-1
 37 37 l 1,13,-1
 37 77 l 1,14,-1
 -3 77 l 1,15,-1
 -3 243 l 1,16,-1
 37 243 l 1,17,-1
 37 283 l 1,18,-1
 77 283 l 1,19,-1
 77 323 l 1,20,-1
 203 323 l 1,21,-1
 203 283 l 1,22,-1
 243 283 l 1,23,-1
 243 237 l 1,24,-1
 197 237 l 1,25,-1
 197 277 l 1,26,-1
 83 277 l 1,27,-1
 83 237 l 1,0,-1
EndSplineSet
Validated: 1
EndChar

StartChar: quotesingle
Encoding: 39 39 93
Width: 120
Flags: WO
LayerCount: 2
Fore
SplineSet
-3 323 m 1,0,-1
 43 323 l 1,1,-1
 42 260 l 1,2,-1
 0 260 l 1,3,-1
 -3 323 l 1,0,-1
EndSplineSet
EndChar
